<svg width="96" height="96" viewBox="0 0 96 96" fill="none" xmlns="http://www.w3.org/2000/svg">
  <rect width="96" height="96" rx="18" fill="#1F130D"/>
  <ellipse cx="48" cy="63" rx="24" ry="10" fill="#C98741"/>
  <path d="M25 57C25 47 35 40 48 40C61 40 71 47 71 57H25Z" fill="#E7B25B"/>
  <path d="M28 55C33 49 39 47 48 47C57 47 63 49 68 55H28Z" fill="#F3C56B"/>
  <rect x="27" y="58" width="42" height="7" rx="3.5" fill="#74A84A"/>
  <rect x="29" y="64" width="38" height="9" rx="4.5" fill="#67341B"/>
  <rect x="30" y="72" width="36" height="7" rx="3.5" fill="#E5B160"/>
  <path d="M34 43C36 41 37 41 39 43" stroke="#FFF4C6" stroke-width="2.4" stroke-linecap="round"/>
  <path d="M46 42C48 40 49 40 51 42" stroke="#FFF4C6" stroke-width="2.4" stroke-linecap="round"/>
  <path d="M57 44C59 42 60 42 62 44" stroke="#FFF4C6" stroke-width="2.4" stroke-linecap="round"/>
</svg>
