<svg width="96" height="96" viewBox="0 0 96 96" fill="none" xmlns="http://www.w3.org/2000/svg">
  <defs>
    <linearGradient id="bg1" x1="12" y1="10" x2="82" y2="88" gradientUnits="userSpaceOnUse">
      <stop stop-color="#1C140F"/>
      <stop offset="1" stop-color="#3A2517"/>
    </linearGradient>
  </defs>
  <rect width="96" height="96" rx="18" fill="url(#bg1)"/>
  <ellipse cx="50" cy="50" rx="30" ry="24" fill="#AE6935"/>
  <ellipse cx="48" cy="48" rx="27" ry="21" fill="#F1B45D"/>
  <ellipse cx="48" cy="48" rx="24" ry="18" fill="#C65B33"/>
  <path d="M27 55C34 45 45 39 60 37C65 44 68 52 68 58C58 66 44 68 31 65L27 55Z" fill="#F0C86A"/>
  <circle cx="39" cy="42" r="4" fill="#703C20"/>
  <circle cx="55" cy="39" r="4" fill="#703C20"/>
  <circle cx="59" cy="52" r="4" fill="#703C20"/>
  <circle cx="43" cy="55" r="4" fill="#703C20"/>
  <circle cx="48" cy="47" r="3.2" fill="#E44F43"/>
  <circle cx="34" cy="50" r="3.2" fill="#E44F43"/>
  <circle cx="62" cy="45" r="3.2" fill="#E44F43"/>
  <path d="M37 36C39 34 41 34 43 36" stroke="#5EA35B" stroke-width="2.4" stroke-linecap="round"/>
  <path d="M51 57C53 55 55 55 57 57" stroke="#5EA35B" stroke-width="2.4" stroke-linecap="round"/>
  <path d="M30 28C38 21 52 19 65 24" stroke="#F9E4A3" stroke-width="3" stroke-linecap="round" opacity=".45"/>
</svg>
