<svg width="96" height="96" viewBox="0 0 96 96" fill="none" xmlns="http://www.w3.org/2000/svg">
  <rect width="96" height="96" rx="18" fill="#23160F"/>
  <ellipse cx="48" cy="61" rx="24" ry="10" fill="#C98A41"/>
  <path d="M24 58C24 49 35 42 48 42C61 42 72 49 72 58H24Z" fill="#E6B35B"/>
  <path d="M27 56H69" stroke="#F7D68A" stroke-width="3" stroke-linecap="round"/>
  <path d="M27 51C30 46 37 43 48 43C59 43 66 46 69 51H27Z" fill="#F3C66A"/>
  <path d="M28 59C34 63 41 65 48 65C55 65 62 63 68 59L66 70H30L28 59Z" fill="#5B8E3B"/>
  <rect x="28" y="54" width="40" height="8" rx="4" fill="#E9D76B"/>
  <rect x="30" y="61" width="36" height="8" rx="4" fill="#9A4E1C"/>
  <path d="M31 69H65C63 76 57 80 48 80C39 80 33 76 31 69Z" fill="#D89B4D"/>
  <circle cx="39" cy="49" r="1.6" fill="#FFF7D6"/>
  <circle cx="48" cy="47" r="1.6" fill="#FFF7D6"/>
  <circle cx="57" cy="49" r="1.6" fill="#FFF7D6"/>
</svg>
